<svg id="visual" viewBox="0 0 960 540" width="960" height="540" xmlns="http://www.w3.org/2000/svg" xmlns:xlink="http://www.w3.org/1999/xlink" version="1.1"><rect x="0" y="0" width="960" height="540" fill="#1A1A1A"></rect><path d="M0 356L22.8 347.8C45.7 339.7 91.3 323.3 137 324C182.7 324.7 228.3 342.3 274 346.5C319.7 350.7 365.3 341.3 411.2 335.7C457 330 503 328 548.8 330.8C594.7 333.7 640.3 341.3 686 348.3C731.7 355.3 777.3 361.7 823 355.3C868.7 349 914.3 330 937.2 320.5L960 311L960 541L937.2 541C914.3 541 868.7 541 823 541C777.3 541 731.7 541 686 541C640.3 541 594.7 541 548.8 541C503 541 457 541 411.2 541C365.3 541 319.7 541 274 541C228.3 541 182.7 541 137 541C91.3 541 45.7 541 22.8 541L0 541Z" fill="#c8a97e"></path><path d="M0 349L22.8 349.7C45.7 350.3 91.3 351.7 137 358.2C182.7 364.7 228.3 376.3 274 374.2C319.7 372 365.3 356 411.2 358.3C457 360.7 503 381.3 548.8 383.5C594.7 385.7 640.3 369.3 686 369C731.7 368.7 777.3 384.3 823 387.8C868.7 391.3 914.3 382.7 937.2 378.3L960 374L960 541L937.2 541C914.3 541 868.7 541 823 541C777.3 541 731.7 541 686 541C640.3 541 594.7 541 548.8 541C503 541 457 541 411.2 541C365.3 541 319.7 541 274 541C228.3 541 182.7 541 137 541C91.3 541 45.7 541 22.8 541L0 541Z" fill="#b99061"></path><path d="M0 420L22.8 419.3C45.7 418.7 91.3 417.3 137 414.8C182.7 412.3 228.3 408.7 274 411.3C319.7 414 365.3 423 411.2 422.5C457 422 503 412 548.8 410.7C594.7 409.3 640.3 416.7 686 423.5C731.7 430.3 777.3 436.7 823 434.2C868.7 431.7 914.3 420.3 937.2 414.7L960 409L960 541L937.2 541C914.3 541 868.7 541 823 541C777.3 541 731.7 541 686 541C640.3 541 594.7 541 548.8 541C503 541 457 541 411.2 541C365.3 541 319.7 541 274 541C228.3 541 182.7 541 137 541C91.3 541 45.7 541 22.8 541L0 541Z" fill="#aa7745"></path><path d="M0 435L22.8 439C45.7 443 91.3 451 137 456.8C182.7 462.7 228.3 466.3 274 465.5C319.7 464.7 365.3 459.3 411.2 455.7C457 452 503 450 548.8 450.8C594.7 451.7 640.3 455.3 686 455C731.7 454.7 777.3 450.3 823 447.2C868.7 444 914.3 442 937.2 441L960 440L960 541L937.2 541C914.3 541 868.7 541 823 541C777.3 541 731.7 541 686 541C640.3 541 594.7 541 548.8 541C503 541 457 541 411.2 541C365.3 541 319.7 541 274 541C228.3 541 182.7 541 137 541C91.3 541 45.7 541 22.8 541L0 541Z" fill="#9b5e2b"></path><path d="M0 479L22.8 479.8C45.7 480.7 91.3 482.3 137 481.3C182.7 480.3 228.3 476.7 274 474.8C319.7 473 365.3 473 411.2 479.2C457 485.3 503 497.7 548.8 501.5C594.7 505.3 640.3 500.7 686 502C731.7 503.3 777.3 510.7 823 514.5C868.7 518.3 914.3 518.7 937.2 518.8L960 519L960 541L937.2 541C914.3 541 868.7 541 823 541C777.3 541 731.7 541 686 541C640.3 541 594.7 541 548.8 541C503 541 457 541 411.2 541C365.3 541 319.7 541 274 541C228.3 541 182.7 541 137 541C91.3 541 45.7 541 22.8 541L0 541Z" fill="#8b4513"></path></svg>